<svg width="28" height="28" viewBox="0 0 28 28" fill="none" xmlns="http://www.w3.org/2000/svg">
<g id="Iconly/Light-Outline/Discovery">
<g id="Discovery">
<path id="Fill 1" fill-rule="evenodd" clip-rule="evenodd" d="M13.08 13.0806L11.8585 16.9854L15.7621 15.7627L16.9848 11.8579L13.08 13.0806ZM10.5238 19.1939C10.2951 19.1939 10.0711 19.1041 9.9043 18.9384C9.67447 18.7074 9.59047 18.3679 9.68847 18.0587L11.547 12.1216C11.6321 11.8462 11.8468 11.6327 12.1198 11.5476L18.057 9.68907C18.3685 9.58991 18.7068 9.67507 18.9378 9.90491C19.1676 10.1359 19.2516 10.4754 19.1536 10.7846L17.2963 16.7217C17.2111 16.9959 16.9953 17.2106 16.7223 17.2957L10.7851 19.1542C10.6988 19.1811 10.6101 19.1939 10.5238 19.1939Z" fill="#F4FFEB"/>
<g id="Group 5">
<mask id="mask0_6_55" style="mask-type:luminance" maskUnits="userSpaceOnUse" x="2" y="2" width="25" height="25">
<path id="Clip 4" fill-rule="evenodd" clip-rule="evenodd" d="M2.33333 2.33334H26.5088V26.5087H2.33333V2.33334Z" fill="white"/>
</mask>
<g mask="url(#mask0_6_55)">
<path id="Fill 3" fill-rule="evenodd" clip-rule="evenodd" d="M14.4209 4.08334C8.7206 4.08334 4.0831 8.72201 4.0831 14.4212C4.0831 20.1215 8.7206 24.759 14.4209 24.759C20.1213 24.759 24.7588 20.1215 24.7588 14.4212C24.7588 8.72201 20.1213 4.08334 14.4209 4.08334ZM14.4209 26.509C7.75577 26.509 2.3331 21.0863 2.3331 14.4212C2.3331 7.75601 7.75577 2.33334 14.4209 2.33334C21.0861 2.33334 26.5088 7.75601 26.5088 14.4212C26.5088 21.0863 21.0861 26.509 14.4209 26.509Z" fill="#F4FFEB"/>
</g>
</g>
</g>
</g>
</svg>
