<svg width="181" height="141" viewBox="0 0 181 141" fill="none" xmlns="http://www.w3.org/2000/svg">
<g filter="url(#filter0_d_213_90)">
<path d="M78.1566 97L73.6941 82.175H78.9316L81.7316 93.975L84.5316 82.175H89.7566L85.2941 97H78.1566ZM98.6004 97.15C95.5671 97.15 93.4629 96.4708 92.2879 95.1125C91.1129 93.7458 90.5254 91.9083 90.5254 89.6C90.5254 87.2667 91.1129 85.4208 92.2879 84.0625C93.4629 82.7042 95.5337 82.025 98.5004 82.025C101.559 82.025 103.646 82.7208 104.763 84.1125C105.888 85.4958 106.45 87.325 106.45 89.6C106.45 90.1417 106.421 90.6292 106.363 91.0625H94.9254V88.075H101.663L101.513 88.4875C101.513 87.2958 101.246 86.4542 100.713 85.9625C100.188 85.4708 99.4546 85.225 98.5129 85.225C97.5796 85.225 96.8171 85.5042 96.2254 86.0625C95.6421 86.6125 95.3504 87.7917 95.3504 89.6C95.3504 91.4167 95.6462 92.5958 96.2379 93.1375C96.8379 93.6792 97.6254 93.95 98.6004 93.95V97.15ZM98.6004 93.95C99.1754 93.95 99.6379 93.8875 99.9879 93.7625C100.346 93.6292 100.634 93.4125 100.85 93.1125C101.067 92.8125 101.275 92.4417 101.475 92L105.925 93.275C105.725 94.2333 105.292 94.9833 104.625 95.525C103.967 96.0667 103.196 96.475 102.313 96.75C101.43 97.0167 100.192 97.15 98.6004 97.15V93.95ZM118.082 89.675C118.082 87.8833 117.886 86.7333 117.495 86.225C117.103 85.7167 116.565 85.4625 115.882 85.4625C115.099 85.4625 114.47 85.75 113.995 86.325C113.52 86.8917 113.282 87.5375 113.282 88.2625L111.382 87.1875C111.382 85.7292 111.974 84.5083 113.157 83.525C114.349 82.5417 115.895 82.05 117.795 82.05C119.878 82.05 121.278 82.675 121.995 83.925C122.711 85.1667 123.07 87.0833 123.07 89.675H118.082ZM108.32 97V82.175H112.17L113.307 84.6V97H108.32ZM132.951 97.15C129.918 97.15 127.813 96.4708 126.638 95.1125C125.463 93.7458 124.876 91.9083 124.876 89.6C124.876 87.2667 125.463 85.4208 126.638 84.0625C127.813 82.7042 129.884 82.025 132.851 82.025C135.909 82.025 137.997 82.7208 139.113 84.1125C140.238 85.4958 140.801 87.325 140.801 89.6C140.801 90.1417 140.772 90.6292 140.713 91.0625H129.276V88.075H136.013L135.863 88.4875C135.863 87.2958 135.597 86.4542 135.063 85.9625C134.538 85.4708 133.805 85.225 132.863 85.225C131.93 85.225 131.168 85.5042 130.576 86.0625C129.993 86.6125 129.701 87.7917 129.701 89.6C129.701 91.4167 129.997 92.5958 130.588 93.1375C131.188 93.6792 131.976 93.95 132.951 93.95V97.15ZM132.951 93.95C133.526 93.95 133.988 93.8875 134.338 93.7625C134.697 93.6292 134.984 93.4125 135.201 93.1125C135.418 92.8125 135.626 92.4417 135.826 92L140.276 93.275C140.076 94.2333 139.643 94.9833 138.976 95.525C138.318 96.0667 137.547 96.475 136.663 96.75C135.78 97.0167 134.543 97.15 132.951 97.15V93.95ZM153.245 97L152.908 94.8875V77.375H157.883V97H153.245ZM148.233 97.1C146.116 97.1 144.599 96.4083 143.683 95.025C142.766 93.6417 142.308 91.8167 142.308 89.55C142.308 87.2917 142.766 85.4792 143.683 84.1125C144.599 82.7458 146.116 82.0625 148.233 82.0625C150.074 82.0625 151.683 82.475 153.058 83.3C154.441 84.125 155.133 85.0667 155.133 86.125L152.92 88.175C152.92 87.3833 152.628 86.7375 152.045 86.2375C151.462 85.7292 150.778 85.475 149.995 85.475C149.137 85.475 148.478 85.7375 148.02 86.2625C147.57 86.7875 147.345 87.8917 147.345 89.575C147.345 91.275 147.57 92.3875 148.02 92.9125C148.478 93.4375 149.137 93.7 149.995 93.7C150.778 93.7 151.462 93.45 152.045 92.95C152.628 92.4417 152.92 91.7875 152.92 90.9875L155.133 93.05C155.133 94.1083 154.441 95.05 153.058 95.875C151.683 96.6917 150.074 97.1 148.233 97.1Z" fill="#66B12A"/>
</g>
<g clip-path="url(#clip0_213_90)">
<path d="M37 54.75L101 21.5L170.917 58.75M170.917 123.375L38.5 122" stroke="#F4FFEB" stroke-width="3" stroke-linecap="round" stroke-linejoin="round"/>
</g>
<g clip-path="url(#clip1_213_90)">
<path fill-rule="evenodd" clip-rule="evenodd" d="M31.8487 64.2421C17.1525 78.8242 16.9296 100.691 30.804 115.332C31.5737 116.144 32.3869 116.935 33.2438 117.7C34.1657 118.524 34.1603 119.863 33.2319 120.691C32.3034 121.519 30.8034 121.522 29.8816 120.698C28.9331 119.85 28.0322 118.975 27.1791 118.075L27.179 118.075C11.792 101.837 12.0365 77.5955 28.3347 61.4239C29.2124 60.5531 30.7105 60.478 31.6808 61.2562C32.6512 62.0345 32.7264 63.3713 31.8487 64.2421Z" fill="#F4FFEB"/>
<path fill-rule="evenodd" clip-rule="evenodd" d="M40.4962 112.001C27.0572 100.623 26.5613 81.6192 39.3885 69.5554C40.2919 68.7058 41.7915 68.6667 42.7379 69.468C43.6844 70.2693 43.7193 71.6077 42.8159 72.4573C31.7954 82.8219 32.2215 99.1487 43.7676 108.924C44.714 109.726 44.749 111.064 43.8456 111.914C42.9422 112.763 41.4427 112.802 40.4962 112.001Z" fill="#F4FFEB"/>
<path fill-rule="evenodd" clip-rule="evenodd" d="M50.5618 103.278C42.4767 96.4323 42.1784 84.9996 49.8954 77.7419C50.7988 76.8923 52.2983 76.8532 53.2448 77.6545C54.1912 78.4558 54.2262 79.7942 53.3228 80.6438C47.4125 86.2023 47.641 94.9583 53.8332 100.201C54.7796 101.002 54.8145 102.341 53.9112 103.19C53.0078 104.04 51.5082 104.079 50.5618 103.278Z" fill="#F4FFEB"/>
<circle cx="62.5" cy="91.5" r="7" stroke="#F4FFEB" stroke-width="3"/>
</g>
<defs>
<filter id="filter0_d_213_90" x="69.6942" y="77.375" width="92.1885" height="27.775" filterUnits="userSpaceOnUse" color-interpolation-filters="sRGB">
<feFlood flood-opacity="0" result="BackgroundImageFix"/>
<feColorMatrix in="SourceAlpha" type="matrix" values="0 0 0 0 0 0 0 0 0 0 0 0 0 0 0 0 0 0 127 0" result="hardAlpha"/>
<feOffset dy="4"/>
<feGaussianBlur stdDeviation="2"/>
<feComposite in2="hardAlpha" operator="out"/>
<feColorMatrix type="matrix" values="0 0 0 0 0 0 0 0 0 0 0 0 0 0 0 0 0 0 0.25 0"/>
<feBlend mode="normal" in2="BackgroundImageFix" result="effect1_dropShadow_213_90"/>
<feBlend mode="normal" in="SourceGraphic" in2="effect1_dropShadow_213_90" result="shape"/>
</filter>
<clipPath id="clip0_213_90">
<rect width="145" height="141" fill="white" transform="translate(36)"/>
</clipPath>
<clipPath id="clip1_213_90">
<rect width="67.6625" height="75.8139" fill="white" transform="translate(1.76514 125.617) rotate(-91.4949)"/>
</clipPath>
</defs>
</svg>
