<svg width="28" height="28" viewBox="0 0 28 28" fill="none" xmlns="http://www.w3.org/2000/svg">
<path fill-rule="evenodd" clip-rule="evenodd" d="M3.71429 14.5714C4.18767 14.5714 4.57143 14.9552 4.57143 15.4286V24.5714C4.57143 25.0448 4.18767 25.4286 3.71429 25.4286C3.2409 25.4286 2.85714 25.0448 2.85714 24.5714V15.4286C2.85714 14.9552 3.2409 14.5714 3.71429 14.5714Z" fill="#F4FFEB"/>
<path fill-rule="evenodd" clip-rule="evenodd" d="M10.4755 15.2868C10.8693 15.5494 10.9758 16.0816 10.7132 16.4755L8.42747 19.904C8.2685 20.1425 8.00088 20.2857 7.71429 20.2857H3.71429C3.2409 20.2857 2.85714 19.902 2.85714 19.4286C2.85714 18.9552 3.2409 18.5714 3.71429 18.5714H7.25556L9.28682 15.5245C9.5494 15.1307 10.0816 15.0242 10.4755 15.2868Z" fill="#F4FFEB"/>
<path fill-rule="evenodd" clip-rule="evenodd" d="M3.57253 11.5245C3.83512 11.1307 4.36729 11.0242 4.76117 11.2868L19.7384 21.2716L24.9876 18.1221C25.3935 17.8786 25.92 18.0102 26.1636 18.4161C26.4071 18.8221 26.2755 19.3486 25.8696 19.5921L20.4654 22.8346C20.4654 22.8346 20.4654 22.8346 20.4653 22.8347C19.992 23.1187 19.3973 23.1045 18.938 22.7984L18.938 22.7983L3.81026 12.7132C3.41638 12.4506 3.30994 11.9184 3.57253 11.5245ZM19.5834 21.3647C19.5834 21.3646 19.5835 21.3646 19.5836 21.3645L19.5834 21.3647Z" fill="#F4FFEB"/>
<path fill-rule="evenodd" clip-rule="evenodd" d="M8.93622 3.93366L5.11376 7.33139L19.1537 16.6914L23.8485 13.7038L8.93622 3.93366ZM7.96078 2.50709C8.44312 2.07833 9.15296 2.02626 9.69273 2.37985L25.1581 12.5123C26.0256 13.0808 26.0175 14.3555 25.1422 14.9125C25.1422 14.9125 25.1422 14.9125 25.1422 14.9125L19.9171 18.2376C19.4398 18.5413 18.8284 18.5347 18.3578 18.2211L3.85488 8.55246C3.85487 8.55245 3.85489 8.55246 3.85488 8.55246C3.07605 8.03326 2.99866 6.91786 3.69818 6.29605L7.96078 2.50709C7.96078 2.50708 7.96077 2.5071 7.96078 2.50709Z" fill="#F4FFEB"/>
</svg>
