<svg width="28" height="28" viewBox="0 0 28 28" fill="none" xmlns="http://www.w3.org/2000/svg">
<g id="Iconly/Light-Outline/Time Circle">
<g id="Time Circle">
<path id="Fill 1" fill-rule="evenodd" clip-rule="evenodd" d="M14 4.08334C8.53184 4.08334 4.08334 8.53184 4.08334 14C4.08334 19.4682 8.53184 23.9167 14 23.9167C19.4682 23.9167 23.9167 19.4682 23.9167 14C23.9167 8.53184 19.4682 4.08334 14 4.08334ZM14 25.6667C7.567 25.6667 2.33334 20.433 2.33334 14C2.33334 7.56701 7.567 2.33334 14 2.33334C20.433 2.33334 25.6667 7.56701 25.6667 14C25.6667 20.433 20.433 25.6667 14 25.6667Z" fill="#F4FFEB"/>
<path id="Fill 3" fill-rule="evenodd" clip-rule="evenodd" d="M18.0031 18.3078C17.8502 18.3078 17.6962 18.2682 17.5551 18.1853L13.1567 15.5615C12.8931 15.4028 12.7297 15.117 12.7297 14.809V9.15298C12.7297 8.66998 13.1217 8.27798 13.6047 8.27798C14.0889 8.27798 14.4797 8.66998 14.4797 9.15298V14.312L18.4522 16.6803C18.8664 16.9288 19.0029 17.4655 18.7556 17.8808C18.5911 18.155 18.3006 18.3078 18.0031 18.3078Z" fill="#F4FFEB"/>
</g>
</g>
</svg>
